<svg version="1.1" id="Layer_1" xmlns="http://www.w3.org/2000/svg" xmlns:xlink="http://www.w3.org/1999/xlink" x="0px" y="0px"
	 width="100%" viewBox="0 0 512 512" enable-background="new 0 0 512 512" xml:space="preserve">
<path fill="#273B7A" opacity="1.000000" stroke="none" 
	d="
M235.000000,1.000000 
	C249.354233,1.000000 263.708466,1.000000 278.712219,1.390676 
	C287.447845,2.850868 295.550476,3.809422 303.616882,5.011083 
	C326.210571,8.376898 347.556885,15.815220 368.061890,25.620539 
	C388.539429,35.412739 407.338409,47.795021 424.468567,62.819286 
	C439.902893,76.356194 453.911499,91.149498 465.888977,107.759285 
	C479.110596,126.094391 489.743408,145.959122 497.516571,167.184982 
	C504.097137,185.154190 509.049652,203.612732 511.038666,222.756058 
	C511.465179,226.860977 512.334595,230.919891 513.000000,235.000000 
	C513.000000,249.354233 513.000000,263.708466 512.609375,278.712219 
	C511.140930,288.387024 510.481567,297.488525 508.854889,306.413727 
	C507.521210,313.731476 505.036377,320.839355 502.755432,327.898102 
	C501.001038,326.386688 499.518829,325.051727 498.109985,323.643311 
	C458.473053,284.018738 418.854675,244.375626 379.171143,204.797745 
	C377.624512,203.255280 375.466309,202.326004 373.684082,201.033447 
	C373.775085,200.955917 373.970856,201.093201 373.852722,200.822998 
	C373.432007,200.297318 373.129395,200.041840 372.541412,199.632843 
	C362.647125,185.117920 349.566193,177.037674 331.503723,177.113770 
	C321.635284,177.136093 313.071289,180.158859 304.929047,184.506317 
	C304.531219,183.614288 304.309479,182.944031 303.863892,182.496826 
	C291.017090,169.603806 278.162750,156.718124 265.248993,143.892303 
	C264.378937,143.028183 263.033051,142.643188 261.941223,142.022522 
	C261.974030,142.009689 261.989044,142.078537 261.897705,141.839691 
	C261.563477,141.364105 261.320587,141.127335 260.855530,140.644653 
	C259.453125,139.002579 258.290314,137.591217 257.089813,136.212723 
	C247.545135,125.252968 235.687561,119.365860 220.516876,119.765938 
	C219.401108,119.808479 218.736893,119.859528 218.072083,119.901016 
	C190.918884,121.595634 171.134323,145.770630 174.637619,172.719406 
	C176.546173,187.400970 184.256088,198.255585 196.110077,206.935226 
	C196.515335,207.462296 196.803940,207.718079 197.042114,207.902924 
	C196.991684,207.832001 197.130386,207.726852 197.204163,208.068573 
	C198.489456,209.760239 199.674530,211.135056 200.917160,212.455704 
	C205.665115,217.501801 210.431625,222.530426 214.742004,227.687546 
	C209.020142,228.445969 203.627258,228.577072 198.493759,229.798447 
	C155.307175,240.073669 128.152618,266.913544 117.381134,309.886871 
	C115.589157,317.036011 116.319038,324.817291 115.979637,332.622009 
	C117.489433,334.557343 118.813477,336.266724 120.329826,337.783936 
	C176.409424,393.894470 232.508057,449.985962 288.595642,506.088501 
	C290.123718,507.616943 291.559479,509.237701 292.611877,510.899353 
	C287.790344,511.655518 283.395172,512.327759 279.000000,513.000000 
	C264.645782,513.000000 250.291550,513.000000 235.287781,512.609375 
	C226.552200,511.149170 218.449631,510.190674 210.383286,508.989014 
	C187.789581,505.623077 166.443192,498.184967 145.938202,488.379578 
	C125.460640,478.587311 106.661652,466.205048 89.531502,451.180725 
	C74.097176,437.643829 60.088474,422.850586 48.111038,406.240753 
	C34.889439,387.905609 24.256617,368.040894 16.483446,346.815063 
	C9.902870,328.845825 4.950321,310.387299 2.961324,291.243958 
	C2.534823,287.139008 1.665391,283.080109 1.000001,279.000000 
	C1.000000,264.645782 1.000000,250.291550 1.390676,235.287781 
	C2.850865,226.552216 3.809431,218.449661 5.011071,210.383316 
	C8.376852,187.789551 15.815154,166.443222 25.620476,145.938202 
	C35.412674,125.460625 47.794914,106.661636 62.819233,89.531471 
	C76.356171,74.097176 91.149414,60.088478 107.759224,48.111023 
	C126.094353,34.889423 145.959091,24.256624 167.184937,16.483444 
	C185.154175,9.902879 203.612717,4.950316 222.756073,2.961325 
	C226.860992,2.534824 230.919891,1.665390 235.000000,1.000000 
z"/>
<path fill="#FFFFFF" opacity="1.000000" stroke="none" 
	d="
M234.531342,1.000000 
	C230.919891,1.665390 226.860992,2.534824 222.756073,2.961325 
	C203.612717,4.950316 185.154175,9.902879 167.184937,16.483444 
	C145.959091,24.256624 126.094353,34.889423 107.759224,48.111023 
	C91.149414,60.088478 76.356171,74.097176 62.819233,89.531471 
	C47.794914,106.661636 35.412674,125.460625 25.620476,145.938202 
	C15.815154,166.443222 8.376852,187.789551 5.011071,210.383316 
	C3.809431,218.449661 2.850865,226.552216 1.390676,234.819122 
	C1.000000,157.072952 1.000000,79.145912 1.000000,1.000000 
	C78.687424,1.000000 156.375061,1.000000 234.531342,1.000000 
z"/>
<path fill="#FFFFFF" opacity="1.000000" stroke="none" 
	d="
M513.000000,234.531342 
	C512.334595,230.919891 511.465179,226.860977 511.038666,222.756058 
	C509.049652,203.612732 504.097137,185.154190 497.516571,167.184982 
	C489.743408,145.959122 479.110596,126.094391 465.888977,107.759285 
	C453.911499,91.149498 439.902893,76.356194 424.468567,62.819286 
	C407.338409,47.795021 388.539429,35.412739 368.061890,25.620539 
	C347.556885,15.815220 326.210571,8.376898 303.616882,5.011083 
	C295.550476,3.809422 287.447845,2.850868 279.180878,1.390676 
	C356.927032,1.000000 434.854095,1.000000 513.000000,1.000000 
	C513.000000,78.687424 513.000000,156.375061 513.000000,234.531342 
z"/>
<path fill="#FFFFFF" opacity="1.000000" stroke="none" 
	d="
M1.000001,279.468658 
	C1.665391,283.080109 2.534823,287.139008 2.961324,291.243958 
	C4.950321,310.387299 9.902870,328.845825 16.483446,346.815063 
	C24.256617,368.040894 34.889439,387.905609 48.111038,406.240753 
	C60.088474,422.850586 74.097176,437.643829 89.531502,451.180725 
	C106.661652,466.205048 125.460640,478.587311 145.938202,488.379578 
	C166.443192,498.184967 187.789581,505.623077 210.383286,508.989014 
	C218.449631,510.190674 226.552200,511.149170 234.819122,512.609375 
	C157.072968,513.000000 79.145927,513.000000 1.000000,513.000000 
	C1.000000,435.312561 1.000000,357.624939 1.000001,279.468658 
z"/>
<path fill="#FFFFFF" opacity="1.000000" stroke="none" 
	d="
M279.468658,513.000000 
	C283.395172,512.327759 287.790344,511.655518 293.023651,510.965332 
	C297.025940,510.294617 300.168488,509.501129 303.357727,509.011597 
	C326.314972,505.488007 347.981812,497.927521 368.828735,487.922699 
	C388.597900,478.435181 407.211151,466.957550 423.248016,451.973633 
	C435.883484,440.167786 448.324097,427.946106 459.316345,414.641052 
	C473.292542,397.724121 484.438477,378.725861 492.752808,358.322815 
	C496.769836,348.465271 499.660950,338.148895 503.061829,328.040283 
	C505.036377,320.839355 507.521210,313.731476 508.854889,306.413727 
	C510.481567,297.488525 511.140930,288.387024 512.609375,279.180878 
	C513.000000,356.927032 513.000000,434.854095 513.000000,513.000000 
	C435.312561,513.000000 357.624939,513.000000 279.468658,513.000000 
z"/>
<path fill="#121149" opacity="1.000000" stroke="none" 
	d="
M502.755432,327.898102 
	C499.660950,338.148895 496.769836,348.465271 492.752808,358.322815 
	C484.438477,378.725861 473.292542,397.724121 459.316345,414.641052 
	C448.324097,427.946106 435.883484,440.167786 423.248016,451.973633 
	C407.211151,466.957550 388.597900,478.435181 368.828735,487.922699 
	C347.981812,497.927521 326.314972,505.488007 303.357727,509.011597 
	C300.168488,509.501129 297.025940,510.294617 293.450012,510.881409 
	C291.559479,509.237701 290.123718,507.616943 288.595642,506.088501 
	C232.508057,449.985962 176.409424,393.894470 120.329826,337.783936 
	C118.813477,336.266724 117.489433,334.557343 116.458405,332.555145 
	C151.560455,332.111572 186.279816,332.050415 221.455017,332.109985 
	C235.425598,332.309082 248.940323,332.387482 262.541779,332.896057 
	C262.657593,342.126312 262.553009,350.929443 262.754395,359.725555 
	C262.945404,368.069550 267.537323,372.890503 275.704407,372.948181 
	C294.132202,373.078278 312.562073,372.911774 331.455200,372.939636 
	C350.084259,373.020081 368.249237,373.053192 386.414124,373.022827 
	C395.716553,373.007294 400.784271,368.360779 400.833435,359.067444 
	C400.986816,330.070953 400.982941,301.072632 400.835022,272.076080 
	C400.787689,262.800812 395.652740,258.085846 386.455994,257.994934 
	C384.292450,257.973572 382.129486,257.894012 379.963867,257.382538 
	C379.961182,249.257980 379.819824,241.588928 379.993805,233.927032 
	C380.253357,222.498688 379.008942,211.410370 373.593079,201.110992 
	C375.466309,202.326004 377.624512,203.255280 379.171143,204.797745 
	C418.854675,244.375626 458.473053,284.018738 498.109985,323.643311 
	C499.518829,325.051727 501.001038,326.386688 502.755432,327.898102 
z"/>
<path fill="#FF7F4F" opacity="1.000000" stroke="none" 
	d="
M220.999176,331.989288 
	C186.279816,332.050415 151.560455,332.111572 116.362335,332.239563 
	C116.319038,324.817291 115.589157,317.036011 117.381134,309.886871 
	C128.152618,266.913544 155.307175,240.073669 198.493759,229.798447 
	C203.627258,228.577072 209.020142,228.445969 215.143005,227.761154 
	C217.658356,227.740387 219.323517,227.767975 220.992538,228.278625 
	C220.997330,263.170868 220.998260,297.580078 220.999176,331.989288 
z"/>
<path fill="#D25933" opacity="1.000000" stroke="none" 
	d="
M220.968155,119.769981 
	C235.687561,119.365860 247.545135,125.252968 257.089813,136.212723 
	C258.290314,137.591217 259.453125,139.002579 260.887024,140.923050 
	C261.423431,141.657776 261.706238,141.868149 261.989044,142.078537 
	C261.989044,142.078537 261.974030,142.009689 261.977722,142.387268 
	C266.885803,151.542740 268.634277,160.873764 268.097626,170.960266 
	C266.855255,194.311142 244.346237,214.965302 220.959427,213.285889 
	C220.968185,181.812485 220.968170,150.791229 220.968155,119.769981 
z"/>
<path fill="#FE7F4F" opacity="1.000000" stroke="none" 
	d="
M220.516876,119.765938 
	C220.968170,150.791229 220.968185,181.812485 220.556290,213.310577 
	C212.473053,211.767242 204.801712,209.747055 197.130386,207.726852 
	C197.130386,207.726852 196.991684,207.832001 197.092407,207.564896 
	C196.793228,207.086502 196.393311,206.875214 195.993393,206.663940 
	C184.256088,198.255585 176.546173,187.400970 174.637619,172.719406 
	C171.134323,145.770630 190.918884,121.595634 218.072083,119.901016 
	C218.736893,119.859528 219.401108,119.808479 220.516876,119.765938 
z"/>
<path fill="#131249" opacity="1.000000" stroke="none" 
	d="
M197.204163,208.068573 
	C204.801712,209.747055 212.473053,211.767242 220.547516,213.762756 
	C244.346237,214.965302 266.855255,194.311142 268.097626,170.960266 
	C268.634277,160.873764 266.885803,151.542740 261.944916,142.400085 
	C263.033051,142.643188 264.378937,143.028183 265.248993,143.892303 
	C278.162750,156.718124 291.017090,169.603806 303.863892,182.496826 
	C304.309479,182.944031 304.531219,183.614288 304.668945,184.728363 
	C290.524750,195.685303 283.556427,209.572998 283.587769,227.005173 
	C283.600830,234.281479 283.433228,241.558136 283.080963,248.611908 
	C264.223969,235.465271 244.045868,227.308670 220.988678,227.795578 
	C219.323517,227.767975 217.658356,227.740387 215.592194,227.639191 
	C210.431625,222.530426 205.665115,217.501801 200.917160,212.455704 
	C199.674530,211.135056 198.489456,209.760239 197.204163,208.068573 
z"/>
<path fill="#CFD0D2" opacity="1.000000" stroke="none" 
	d="
M373.684082,201.033447 
	C379.008942,211.410370 380.253357,222.498688 379.993805,233.927032 
	C379.819824,241.588928 379.961182,249.257980 379.503052,257.438812 
	C374.027374,257.914917 369.010010,257.876038 363.994141,257.381104 
	C363.995911,246.926376 364.370941,236.907990 363.845673,226.937042 
	C363.563416,221.579102 362.628296,215.895737 360.428864,211.069672 
	C354.987915,199.130997 344.790771,193.584702 331.917419,192.083038 
	C331.894592,186.829285 331.914368,182.010040 331.934143,177.190796 
	C349.566193,177.037674 362.647125,185.117920 372.627808,199.960464 
	C373.323334,200.658798 373.647095,200.876007 373.970856,201.093201 
	C373.970856,201.093201 373.775085,200.955917 373.684082,201.033447 
z"/>
<path fill="#FDFDFD" opacity="1.000000" stroke="none" 
	d="
M331.503723,177.113770 
	C331.914368,182.010040 331.894592,186.829285 331.478882,192.121124 
	C313.968262,192.604614 298.521667,206.793839 298.996552,227.397125 
	C299.230499,237.548294 299.036652,247.709290 298.571472,257.941315 
	C293.287262,257.979126 288.467926,257.941437 283.638428,257.467346 
	C283.534760,254.298843 283.441284,251.566727 283.347778,248.834625 
	C283.433228,241.558136 283.600830,234.281479 283.587769,227.005173 
	C283.556427,209.572998 290.524750,195.685303 304.740662,185.054108 
	C313.071289,180.158859 321.635284,177.136093 331.503723,177.113770 
z"/>
<path fill="#131249" opacity="1.000000" stroke="none" 
	d="
M196.110077,206.935211 
	C196.393311,206.875214 196.793228,207.086502 197.142838,207.635834 
	C196.803940,207.718079 196.515335,207.462296 196.110077,206.935211 
z"/>
<path fill="#121149" opacity="1.000000" stroke="none" 
	d="
M373.852722,200.823013 
	C373.647095,200.876007 373.323334,200.658798 372.913208,200.113968 
	C373.129395,200.041840 373.432007,200.297318 373.852722,200.823013 
z"/>
<path fill="#131249" opacity="1.000000" stroke="none" 
	d="
M261.897705,141.839691 
	C261.706238,141.868149 261.423431,141.657776 261.109131,141.168976 
	C261.320587,141.127335 261.563477,141.364105 261.897705,141.839691 
z"/>
<path fill="#E9A22F" opacity="1.000000" stroke="none" 
	d="
M363.992676,257.837158 
	C369.010010,257.876038 374.027374,257.914917 379.505493,257.897522 
	C382.129486,257.894012 384.292450,257.973572 386.455994,257.994934 
	C395.652740,258.085846 400.787689,262.800812 400.835022,272.076080 
	C400.982941,301.072632 400.986816,330.070953 400.833435,359.067444 
	C400.784271,368.360779 395.716553,373.007294 386.414124,373.022827 
	C368.249237,373.053192 350.084259,373.020081 331.467041,372.479858 
	C331.055573,363.233582 331.096344,354.520752 331.494446,345.833313 
	C337.543823,344.306061 339.682800,341.871368 339.922363,336.168335 
	C340.096313,332.027283 339.638000,327.837219 340.092468,323.738983 
	C340.357819,321.346283 341.346680,318.636749 342.908356,316.858795 
	C347.750763,311.345764 349.384247,304.997955 346.821442,299.020813 
	C343.976349,292.385284 338.715088,289.062714 331.069855,288.609741 
	C331.030121,278.154724 331.006104,268.173248 331.445007,258.109192 
	C342.602844,257.963409 353.297760,257.900269 363.992676,257.837158 
z"/>
<path fill="#FFC61B" opacity="1.000000" stroke="none" 
	d="
M330.982086,258.191772 
	C331.006104,268.173248 331.030121,278.154724 331.061920,288.588623 
	C331.069702,289.041107 331.076538,289.061096 330.673950,289.043457 
	C323.035950,289.652863 318.281708,293.485535 316.070648,300.332977 
	C314.050873,306.588013 315.938232,311.865173 320.105255,316.788635 
	C321.649689,318.613403 322.617340,321.311157 322.915527,323.725922 
	C323.541809,328.797913 323.386230,333.961609 323.864868,339.058228 
	C324.249695,343.156525 326.782043,345.205597 331.000916,345.257599 
	C331.041321,345.442230 331.137115,345.807922 331.137115,345.807922 
	C331.096344,354.520752 331.055573,363.233582 331.002930,372.406189 
	C312.562073,372.911774 294.132202,373.078278 275.704407,372.948181 
	C267.537323,372.890503 262.945404,368.069550 262.754395,359.725555 
	C262.553009,350.929443 262.657593,342.126312 262.658966,332.407959 
	C262.746460,329.326843 262.851135,327.164062 262.852997,325.001221 
	C262.868317,307.179474 262.809967,289.357483 262.890686,271.536102 
	C262.928680,263.144379 267.294922,258.625702 275.658905,258.067413 
	C278.313965,257.890198 280.984924,257.951599 283.648621,257.903778 
	C288.467926,257.941437 293.287262,257.979126 299.033356,258.013245 
	C310.300781,258.070374 320.641449,258.131073 330.982086,258.191772 
z"/>
<path fill="#D25A34" opacity="1.000000" stroke="none" 
	d="
M283.638428,257.467346 
	C280.984924,257.951599 278.313965,257.890198 275.658905,258.067413 
	C267.294922,258.625702 262.928680,263.144379 262.890686,271.536102 
	C262.809967,289.357483 262.868317,307.179474 262.852997,325.001221 
	C262.851135,327.164062 262.746460,329.326843 262.572235,331.977753 
	C248.940323,332.387482 235.425598,332.309082 221.455017,332.109985 
	C220.998260,297.580078 220.997330,263.170868 220.992538,228.278625 
	C244.045868,227.308670 264.223969,235.465271 283.080933,248.611908 
	C283.441284,251.566727 283.534760,254.298843 283.638428,257.467346 
z"/>
<path fill="#131249" opacity="1.000000" stroke="none" 
	d="
M331.445007,258.109161 
	C320.641449,258.131073 310.300781,258.070374 299.498260,257.937744 
	C299.036652,247.709290 299.230499,237.548294 298.996552,227.397125 
	C298.521667,206.793839 313.968262,192.604614 331.521484,192.555634 
	C344.790771,193.584702 354.987915,199.130997 360.428864,211.069672 
	C362.628296,215.895737 363.563416,221.579102 363.845673,226.937042 
	C364.370941,236.907990 363.995911,246.926376 363.994141,257.381073 
	C353.297760,257.900269 342.602844,257.963409 331.445007,258.109161 
z"/>
<path fill="#FE581A" opacity="1.000000" stroke="none" 
	d="
M331.494446,345.833313 
	C331.137115,345.807922 331.041321,345.442230 331.038391,344.782013 
	C331.049194,325.768219 331.062866,307.414673 331.076538,289.061096 
	C331.076538,289.061096 331.069702,289.041107 331.077637,289.062225 
	C338.715088,289.062714 343.976349,292.385284 346.821442,299.020813 
	C349.384247,304.997955 347.750763,311.345764 342.908356,316.858795 
	C341.346680,318.636749 340.357819,321.346283 340.092468,323.738983 
	C339.638000,327.837219 340.096313,332.027283 339.922363,336.168335 
	C339.682800,341.871368 337.543823,344.306061 331.494446,345.833313 
z"/>
<path fill="#EAA32F" opacity="1.000000" stroke="none" 
	d="
M330.673950,289.043457 
	C331.062866,307.414673 331.049194,325.768219 330.997986,344.597382 
	C326.782043,345.205597 324.249695,343.156525 323.864868,339.058228 
	C323.386230,333.961609 323.541809,328.797913 322.915527,323.725922 
	C322.617340,321.311157 321.649689,318.613403 320.105255,316.788635 
	C315.938232,311.865173 314.050873,306.588013 316.070648,300.332977 
	C318.281708,293.485535 323.035950,289.652863 330.673950,289.043457 
z"/>
</svg>